<svg xmlns="http://www.w3.org/2000/svg" viewBox="0 0 32 32"><title>VerdictMesh</title><rect width="32" height="32" rx="4" fill="#C0F060"/><g transform="translate(3.06 2) scale(0.05283) translate(-720 -700)" fill="none" stroke="#000" stroke-width="26"><circle cx="822" cy="966" r="85"/><circle cx="822" cy="948" r="28"/><path d="M775 1032a47 47 0 0 1 94 0"/><circle cx="1110" cy="801" r="85"/><circle cx="1110" cy="783" r="28"/><path d="M1063 867a47 47 0 0 1 94 0"/><circle cx="1110" cy="1131" r="85"/><circle cx="1110" cy="1113" r="28"/><path d="M1063 1197a47 47 0 0 1 94 0"/><path d="M900 922l132-77M900 1010l132 77"/></g></svg>
